<!DOCTYPE svg PUBLIC "-//W3C//DTD SVG 1.1//EN" "http://www.w3.org/Graphics/SVG/1.1/DTD/svg11.dtd">
<!-- Uploaded to: SVG Repo, www.svgrepo.com, Transformed by: SVG Repo Mixer Tools -->
<svg fill="#31869b" width="800px" height="800px" viewBox="-3.2 -3.2 38.40 38.40" version="1.1" xmlns="http://www.w3.org/2000/svg" stroke="#31869b" transform="rotate(0)" stroke-width="0.128">
<g id="SVGRepo_bgCarrier" stroke-width="0"/>
<g id="SVGRepo_tracerCarrier" stroke-linecap="round" stroke-linejoin="round"/>
<g id="SVGRepo_iconCarrier"> <title>honeycomb</title> <path d="M10.262 18.021l-2.19-3.759 2.19-3.759h4.38l2.19 3.759-2.19 3.759h-4.38zM17.299 14.203l-2.19-3.759 2.19-3.759h4.38l2.19 3.759-2.19 3.759h-4.38zM3.071 13.992l-2.19-3.759 2.19-3.759h4.38l2.19 3.759-2.19 3.759h-4.38zM10.159 9.904l-2.19-3.759 2.19-3.759h4.38l2.19 3.759-2.19 3.759h-4.38zM17.247 30.235l-2.19-3.759 2.19-3.759h4.38l2.19 3.759-2.19 3.759h-4.38zM24.155 26.161l-2.19-3.759 2.19-3.759h4.38l2.19 3.759-2.19 3.759h-4.38zM10.262 26.058l-2.19-3.759 2.19-3.759h4.38l2.19 3.759-2.19 3.759h-4.38zM17.247 22.143l-2.19-3.759 2.19-3.759h4.38l2.19 3.759-2.19 3.759h-4.38zM3.28 22.134l-2.19-3.759 2.19-3.759h4.38l2.19 3.759-2.19 3.759h-4.38zM24.312 10.129l-2.19-3.759 2.19-3.759h4.38l2.19 3.759-2.19 3.759h-4.38z"/> </g>
</svg>